<svg xmlns="http://www.w3.org/2000/svg" width="22" height="18.822" viewBox="0 0 22 18.822">
  <g id="Icon_ionic-md-thumbs-up" data-name="Icon ionic-md-thumbs-up" transform="translate(-3.375 -4.5)">
    <path id="Path_152" data-name="Path 152" d="M26.214,23.322h-9.68a2.079,2.079,0,0,1-1.925-1.147L11.4,15.538a1.665,1.665,0,0,1-.146-.686V12.96a2.28,2.28,0,0,1,2.127-2.186h6.708L19.073,6.779l-.034-.294a1.334,1.334,0,0,1,.467-1l1.137-.99,7.091,6.24a1.77,1.77,0,0,1,.619,1.328v9.411A2,2,0,0,1,26.214,23.322Z" transform="translate(-7.875 0)" fill="#ab9d6c"/>
    <path id="Path_153" data-name="Path 153" d="M6.173,15.75h-2.8v9.794h2.8Z" transform="translate(19.202 -2.222)" fill="#ab9d6c"/>
  </g>
</svg>
